<svg width="500" height="500" viewBox="0 0 500 500" fill="none" xmlns="http://www.w3.org/2000/svg">
<circle cx="250" cy="250" r="250" fill="#659CBA"/>
<circle cx="250" cy="250" r="198.5" fill="#659CBA" stroke="#F9F9F9" stroke-width="3"/>
<path d="M145.683 282.35C149.483 282.35 153.683 279.3 158.283 273.2C162.883 267.1 167.133 259.6 171.033 250.7C174.933 241.7 178.533 232.45 181.833 222.95C185.233 213.45 187.883 205 189.783 197.6C191.683 190.1 192.633 185.65 192.633 184.25C192.633 182.85 192.533 182.15 192.333 182.15C191.433 182.15 185.733 187.7 175.233 198.8C164.733 209.8 156.383 218.4 150.183 224.6C143.983 230.8 136.733 237.7 128.433 245.3C111.233 260.9 91.633 274.75 69.633 286.85C69.033 287.15 68.433 287.3 67.833 287.3C67.233 287.3 66.933 287.1 66.933 286.7C66.933 286.3 67.283 285.95 67.983 285.65C82.783 278.05 97.433 268.3 111.933 256.4C126.833 244.1 138.883 233.3 148.083 224C157.283 214.6 164.283 207.35 169.083 202.25C173.883 197.15 179.583 191.05 186.183 183.95C192.883 176.85 197.983 171.45 201.483 167.75C202.083 167.15 202.583 166.85 202.983 166.85C203.383 166.85 203.583 167.15 203.583 167.75C203.583 170.85 202.633 176.65 200.733 185.15C198.833 193.65 196.033 203.55 192.333 214.85C188.633 226.05 184.483 236.85 179.883 247.25C175.283 257.65 169.833 266.45 163.533 273.65C157.233 280.75 150.933 284.3 144.633 284.3C140.733 284.3 137.633 282.25 135.333 278.15C133.133 274.15 132.033 268.9 132.033 262.4C132.033 255.8 133.633 249.75 136.833 244.25C137.633 242.85 138.333 242.15 138.933 242.15C139.433 242.15 139.783 242.55 139.983 243.35C138.983 245.05 138.083 248 137.283 252.2C136.483 256.3 136.083 260.45 136.083 264.65C136.083 276.45 139.283 282.35 145.683 282.35ZM210.254 258.95C194.554 269.65 184.554 275 180.254 275C179.154 275 178.604 274.65 178.604 273.95C178.604 271.15 182.204 264.8 189.404 254.9C196.604 245 204.904 234.5 214.304 223.4C204.704 223.2 198.804 223.1 196.604 223.1C194.404 223.1 193.304 222.55 193.304 221.45C193.304 221.05 193.754 220.85 194.654 220.85L216.104 221.3C228.304 207 235.054 199.85 236.354 199.85C239.054 199.85 240.404 200.3 240.404 201.2C240.404 202 234.854 208.75 223.754 221.45L248.954 221.9C250.254 221.9 250.904 222.1 250.904 222.5C250.904 222.8 250.704 223 250.304 223.1C249.704 223.4 244.754 223.55 235.454 223.55H221.954C215.454 230.95 210.704 236.35 207.704 239.75C204.704 243.05 200.804 247.5 196.004 253.1C187.104 263.5 182.654 269.7 182.654 271.7C182.654 272.1 183.004 272.3 183.704 272.3C184.504 272.3 187.054 271.15 191.354 268.85C195.654 266.45 198.904 264.45 201.104 262.85L210.104 257.3L210.254 258.95ZM229.684 242.6C230.584 241.5 231.634 240.1 232.834 238.4C234.034 236.7 235.034 235.85 235.834 235.85C236.634 235.85 237.484 236.6 238.384 238.1C238.384 239.9 233.834 245.8 224.734 255.8C215.734 265.8 211.234 271.25 211.234 272.15C211.234 272.35 211.534 272.45 212.134 272.45C212.734 272.45 216.234 270.4 222.634 266.3C236.034 257.7 247.584 248.25 257.284 237.95C259.684 235.75 261.784 234.65 263.584 234.65C263.684 234.65 263.784 234.65 263.884 234.65C265.784 234.75 266.734 235 266.734 235.4L266.584 235.7C262.284 239.7 255.884 246.45 247.384 255.95C238.884 265.45 234.634 271.05 234.634 272.75C234.634 273.15 234.934 273.35 235.534 273.35C236.234 273.35 243.084 269.25 256.084 261.05L262.234 257.15L262.384 258.95C261.184 259.75 259.634 260.75 257.734 261.95C242.834 271.35 234.134 276.05 231.634 276.05C230.734 276.05 230.284 275.55 230.284 274.55C230.284 273.55 231.484 270.7 233.884 266C236.384 261.3 238.184 258.3 239.284 257L236.884 258.35C221.784 269.15 212.734 274.55 209.734 274.55C208.534 274.55 207.934 273.9 207.934 272.6C207.934 271.2 208.484 269.45 209.584 267.35C210.684 265.15 211.684 263.4 212.584 262.1C213.584 260.8 215.034 259.05 216.934 256.85C218.834 254.55 219.834 253.35 219.934 253.25L208.234 260.15L207.784 258.5L212.884 255.35C221.584 249.75 227.184 245.5 229.684 242.6ZM260.533 272.45C263.233 272.45 269.883 268.55 280.483 260.75C291.083 252.85 298.683 245.3 303.283 238.1C303.283 237.4 302.683 237.05 301.483 237.05C298.683 237.05 293.933 239.15 287.233 243.35C280.533 247.55 274.283 252.5 268.483 258.2C262.783 263.8 259.933 268.3 259.933 271.7C259.933 272.2 260.133 272.45 260.533 272.45ZM281.233 275.9C280.033 275.9 279.433 275.25 279.433 273.95C279.433 272.55 279.733 271.15 280.333 269.75C281.033 268.35 282.033 266.6 283.333 264.5C285.033 261.8 286.133 259.75 286.633 258.35L286.483 258.2C271.383 269.2 262.083 274.7 258.583 274.7C257.483 274.7 256.933 273.7 256.933 271.7C256.933 266.5 258.783 261.5 262.483 256.7C266.283 251.9 270.833 248 276.133 245C281.433 241.9 286.733 239.45 292.033 237.65C297.333 235.85 301.783 234.95 305.383 234.95C325.483 212.85 341.183 194.5 352.483 179.9C354.783 176.9 357.383 175.35 360.283 175.25C361.183 175.25 361.633 175.65 361.633 176.45C361.633 177.25 354.983 185.2 341.683 200.3C328.383 215.4 315.083 230.8 301.783 246.5C288.483 262.2 281.833 271.2 281.833 273.5C281.833 273.9 282.083 274.1 282.583 274.1C283.083 274.1 285.083 273.25 288.583 271.55C292.083 269.85 295.233 268.15 298.033 266.45L312.733 257.15L312.883 259.1C296.283 270.3 285.733 275.9 281.233 275.9ZM342.42 222.8C342.42 224.3 343.27 225.05 344.97 225.05C346.67 225.05 348.22 224.3 349.62 222.8C351.02 221.2 351.72 220 351.72 219.2C351.72 218.4 351.42 217.7 350.82 217.1C350.32 216.5 349.52 216.2 348.42 216.2C347.42 216.2 346.17 216.9 344.67 218.3C343.17 219.7 342.42 221.2 342.42 222.8ZM307.02 272.45C307.02 272.85 307.27 273.05 307.77 273.05C309.57 273.05 318.52 267.75 334.62 257.15L334.77 259.1L328.62 263.15C324.52 265.85 320.02 268.55 315.12 271.25C310.22 273.85 306.97 275.15 305.37 275.15C304.17 275.15 303.57 274.2 303.57 272.3C303.57 270.3 306.57 265.25 312.57 257.15C318.67 248.95 325.12 241.4 331.92 234.5C332.62 233.7 333.37 233.3 334.17 233.3L337.62 233.6C338.42 233.7 338.82 233.95 338.82 234.35C338.82 234.65 338.52 235.2 337.92 236C333.92 240 328.02 246.45 320.22 255.35C312.52 264.25 308.12 269.95 307.02 272.45ZM365.435 241.25V241.1C363.435 242.1 361.235 244.5 358.835 248.3C356.435 252 355.035 255.2 354.635 257.9C361.835 250.5 365.435 244.95 365.435 241.25ZM333.485 272.6C337.285 272.6 343.435 268.6 351.935 260.6V259.85C351.935 256.75 353.435 252.95 356.435 248.45C359.535 243.85 362.335 240.9 364.835 239.6C364.535 239.3 364.135 239.15 363.635 239.15C359.935 239.15 353.785 243.4 345.185 251.9C336.685 260.4 332.435 267 332.435 271.7C332.435 272.3 332.785 272.6 333.485 272.6ZM328.835 270.5C328.835 263 333.135 255.55 341.735 248.15C350.435 240.65 357.635 236.9 363.335 236.9C366.135 236.9 367.535 238.15 367.535 240.65C367.535 247.75 363.735 254.85 356.135 261.95C356.735 262.15 357.335 262.25 357.935 262.25C360.735 262.25 364.785 260.5 370.085 257L370.835 258.5C364.435 262.8 359.585 264.95 356.285 264.95C354.985 264.95 354.035 264.7 353.435 264.2C349.535 267.4 345.435 270 341.135 272C336.835 274 333.685 275 331.685 275C329.785 275 328.835 273.5 328.835 270.5ZM369.995 259.1C369.495 259.4 368.895 259.8 368.195 260.3L367.745 258.5C379.045 251.3 388.245 245.7 395.345 241.7L399.395 239.3C400.895 238.1 402.545 236.7 404.345 235.1C408.145 232.1 410.145 230.65 410.345 230.75C410.845 230.75 411.095 231 411.095 231.5C411.095 231.9 410.695 232.65 409.895 233.75C409.095 234.75 407.945 235.95 406.445 237.35C405.045 238.75 404.195 239.65 403.895 240.05C402.395 241.55 399.895 246.35 396.395 254.45C392.995 262.45 391.145 266.75 390.845 267.35C390.845 267.75 390.945 267.95 391.145 267.95C391.445 267.95 391.645 267.9 391.745 267.8L408.545 257.15L408.695 259.1C407.495 259.8 405.495 261.05 402.695 262.85C399.895 264.65 397.895 265.9 396.695 266.6C395.595 267.3 393.945 268.35 391.745 269.75C389.545 271.05 387.845 272 386.645 272.6C385.445 273.2 384.045 273.9 382.445 274.7C378.345 275.9 375.745 276.5 374.645 276.5C374.545 276.5 374.495 276.5 374.495 276.5C371.795 276.5 369.595 275.7 367.895 274.1C366.195 272.5 365.345 270.65 365.345 268.55C365.345 266.45 366.045 264.65 367.445 263.15C368.945 261.65 370.695 260.9 372.695 260.9C374.695 260.9 375.695 261.7 375.695 263.3C375.695 264.2 375.345 265.05 374.645 265.85C374.045 266.65 373.245 267.05 372.245 267.05C371.345 267.05 370.795 266.6 370.595 265.7C370.495 264.8 370.245 264.35 369.845 264.35C369.145 264.35 368.545 264.7 368.045 265.4C367.645 266.1 367.445 267.1 367.445 268.4C367.445 269.7 368.045 271 369.245 272.3C370.445 273.5 372.145 274.1 374.345 274.1C376.545 274.1 378.595 273.3 380.495 271.7C382.495 270.1 383.845 268.7 384.545 267.5C385.245 266.3 386.745 262.95 389.045 257.45C391.345 251.85 393.745 247.45 396.245 244.25L396.545 243.65C396.545 243.55 396.395 243.5 396.095 243.5C395.295 243.5 388.645 247.4 376.145 255.2L369.995 259.1Z" fill="#F5F5F5"/>
</svg>
